<svg width="42" height="42" viewBox="0 0 42 42" fill="none" xmlns="http://www.w3.org/2000/svg">
<path d="M12 20.7308C12 19.0387 12 18.1927 12.342 17.4491C12.6841 16.7054 13.3264 16.1548 14.6111 15.0537L15.8573 13.9855C18.1794 11.9952 19.3404 11 20.7234 11C22.1064 11 23.2674 11.9952 25.5895 13.9855L26.8357 15.0537C28.1203 16.1548 28.7627 16.7054 29.1047 17.4491C29.4468 18.1927 29.4468 19.0387 29.4468 20.7308V26.0151C29.4468 28.365 29.4468 29.5399 28.7168 30.2699C27.9867 30.9999 26.8118 30.9999 24.462 30.9999H16.9848C14.6349 30.9999 13.46 30.9999 12.73 30.2699C12 29.5399 12 28.365 12 26.0151V20.7308Z" stroke="#7E69F8" stroke-width="1.5"/>
<path d="M23.8389 30.9999V24.5227C23.8389 23.9704 23.3912 23.5227 22.8389 23.5227H18.6079C18.0556 23.5227 17.6079 23.9704 17.6079 24.5227V30.9999" stroke="#7E69F8" stroke-width="1.5" stroke-linecap="round" stroke-linejoin="round"/>
</svg>
