<svg width="281" height="69" viewBox="0 0 281 69" fill="none" xmlns="http://www.w3.org/2000/svg">
    <path d="M54.9326 60.6133C48.6076 56.7095 43.245 59.7999 41.3544 61.833C46.7169 53.1893 53.6146 55.5016 56.4794 57.6502C59.3444 59.7999 64.9015 61.7749 68.1671 61.833C66.3911 63.0528 61.2576 64.517 54.9326 60.6133Z" fill="#59A9F3"/>
    <path d="M27.6168 62.648C14.7523 55.0604 3.84544 61.0673 0 65.0182C10.9069 48.219 24.9367 52.7126 30.763 56.89C36.5892 61.0673 47.8923 64.9057 54.5342 65.0182C50.9223 67.3897 40.4812 70.2346 27.6168 62.648Z" fill="#59A9F3"/>
    <path d="M64.3614 10C66.2948 10 67.8615 8.43294 67.8615 6.49998C67.8615 4.56695 66.2948 3 64.3614 3C62.4287 3 60.8615 4.56695 60.8615 6.49998C60.8615 8.43294 62.4287 10 64.3614 10Z" fill="black"/>
    <path d="M48.2615 12.8223C50.1941 12.8223 51.7615 11.2552 51.7615 9.32224C51.7615 7.38929 50.1941 5.82227 48.2615 5.82227C46.3287 5.82227 44.7615 7.38929 44.7615 9.32224C44.7615 11.2552 46.3287 12.8223 48.2615 12.8223Z" fill="black"/>
    <path d="M61.0647 41.5509C61.4007 41.5509 61.5688 41.7933 61.5688 42.2775C61.5688 42.7485 61.4813 43.1381 61.3063 43.4473C61.1315 43.7573 60.9297 44.0396 60.7011 44.2951C60.4725 44.5505 60.1832 44.7923 59.834 45.0209C59.0132 45.5594 58.1463 45.828 57.231 45.828C56.3304 45.828 55.6107 45.7206 55.0729 45.5057C54.5481 45.2771 54.0909 44.9403 53.7004 44.4969C52.8666 43.5685 52.4499 42.2844 52.4499 40.6433C52.4499 38.8949 52.786 36.763 53.4587 34.2479C54.1308 31.7194 54.7768 29.5607 55.3951 27.7718C56.0273 25.9695 56.6733 24.2548 57.3323 22.6273L59.1482 18.0073C57.1573 19.7961 54.6356 23.5554 51.5823 29.285L46.6998 38.525C44.0907 43.3937 42.2279 45.828 41.1116 45.828C40.0222 45.828 39.2758 45.3576 38.8722 44.4163C38.5092 43.5149 38.3275 41.9882 38.3275 39.8361C38.3275 37.6711 38.4956 35.5997 38.8322 33.6225C39.1814 31.6319 39.6187 29.6885 40.1434 27.792C41.0579 24.443 42.2416 21.1209 43.694 17.8258C42.2816 18.6193 40.715 20.3879 38.9934 23.1318C37.6752 25.324 36.7473 26.9246 36.2093 27.9333L31.0042 37.5162C28.8388 41.4573 27.097 43.8915 25.779 44.8191C24.8241 45.4919 23.7952 45.828 22.6922 45.828C21.7507 45.828 21.0715 45.5326 20.6546 44.9403C20.4932 44.6986 20.4125 44.4762 20.4125 44.2744C20.4125 44.0734 20.473 43.9522 20.5941 43.9116C21.428 43.6828 22.0198 43.4473 22.3695 43.2057C22.7058 42.9501 23.0419 42.6947 23.3782 42.4385C23.7145 42.17 24.2054 41.6115 24.851 40.7645C25.4965 39.9037 26.1959 38.8748 26.9491 37.6774C27.7023 36.4671 28.4891 35.1155 29.3096 33.6225L31.8717 28.9017C34.2389 24.3287 36.7137 20.6636 39.2957 17.9065C40.2109 16.9246 41.1116 16.1647 41.9992 15.6266C42.887 14.9944 43.9157 14.5708 45.0864 14.3556C45.4087 14.2884 45.7048 14.2548 45.974 14.2548C46.2564 14.2548 46.5656 14.2951 46.9016 14.3758C47.2514 14.4565 47.5545 14.5843 47.8099 14.7592C48.4015 15.1626 48.5763 15.7006 48.3339 16.3731C48.2265 16.7766 48.0178 17.3818 47.7086 18.1889L46.6192 21.0739C44.0775 28.0947 42.6852 34.4833 42.4434 40.2397C43.1562 39.0161 43.8757 37.6774 44.6023 36.225L46.8817 31.726L49.2822 27.1464C52.9815 20.287 56.4177 16.3597 59.5916 15.3644C60.2508 15.1492 60.8022 15.0416 61.2458 15.0416C61.6899 15.0416 62.0398 15.1021 62.2952 15.2232C62.5507 15.3307 62.7793 15.472 62.9811 15.6468C63.4521 16.0772 63.6133 16.521 63.4653 16.9784C63.3172 17.4222 63.1223 17.9939 62.8799 18.6932L59.9546 27.2271L58.9058 30.5761C57.7489 34.4497 57.0631 37.4221 56.8481 39.4932C56.7676 40.3678 56.8613 41.0537 57.1305 41.5509C57.4129 42.0357 57.7964 42.2775 58.2805 42.2775C58.7647 42.2775 59.1413 42.2436 59.4099 42.1768C59.6929 42.0956 59.9347 42.0081 60.1363 41.9145L60.6611 41.6721C60.8091 41.5915 60.9435 41.5509 61.0647 41.5509ZM64.9382 38.565C64.9918 37.3951 65.1867 36.2789 65.5229 35.2163C65.8596 34.1404 66.31 33.1047 66.8746 32.1094C67.44 31.1006 68.0991 30.1524 68.8517 29.2648C69.6188 28.3637 70.4458 27.5768 71.3335 26.9044C73.2569 25.4651 75.2002 24.7456 77.1641 24.7456C79.4642 24.7456 80.997 25.6939 81.7634 27.5903C82.0328 28.2359 82.1609 29.0025 82.1471 29.8902C82.1333 30.7645 81.9652 31.5781 81.643 32.3313C81.32 33.071 80.8697 33.7503 80.2912 34.369C79.7258 34.9743 79.0469 35.519 78.2535 36.0031C77.4733 36.4873 76.6194 36.8975 75.6911 37.2338C73.7815 37.906 71.7371 38.2558 69.5582 38.2826C69.5044 38.4714 69.4707 38.7536 69.4569 39.1304C69.4439 39.507 69.4839 39.9305 69.5781 40.4009C69.6725 40.8588 69.8337 41.2686 70.0623 41.6321C70.5463 42.4385 71.246 42.8421 72.1606 42.8421C73.721 42.8421 75.2408 42.3849 76.7199 41.4703C77.2447 41.1611 77.6682 40.8451 77.9912 40.5221C78.3272 40.1861 78.6165 40.018 78.8589 40.018C79.1005 40.018 79.3092 40.166 79.4841 40.4614C79.6721 40.7445 79.7665 41.0668 79.7665 41.4304C79.7665 42.1431 79.5647 42.7615 79.1612 43.2863C77.4664 44.9809 74.9446 45.828 71.5958 45.828C69.6188 45.828 68.0315 45.2365 66.8347 44.0527C65.4898 42.7079 64.8576 40.8788 64.9382 38.565ZM76.7199 27.4289C75.3076 27.4289 73.9496 28.3972 72.6446 30.3341C71.5422 32.0018 70.6545 33.979 69.9817 36.2653C72.228 36.0367 74.1782 35.1491 75.8323 33.6023C77.3521 32.1498 78.1124 30.7577 78.1124 29.4261C78.1124 28.0947 77.6483 27.4289 76.7199 27.4289ZM98.7713 28.5587C98.3539 28.5587 97.7624 28.9621 96.996 29.7692C96.2288 30.5627 95.5629 31.289 94.9983 31.948L93.2836 34.0059L89.9747 38.2221C89.1945 39.7019 88.583 40.9325 88.1388 41.9145L87.0493 44.2545C86.7671 44.8329 86.5184 45.2433 86.303 45.485C86.1012 45.7137 85.8188 45.828 85.456 45.828C85.1061 45.828 84.7631 45.7612 84.4271 45.6262C84.1041 45.5057 83.8218 45.3439 83.5794 45.1421C83.0684 44.7117 82.813 44.2414 82.813 43.7297C82.813 43.5279 82.961 43.1314 83.2564 42.5398L84.0236 40.9057C84.2653 40.4216 84.5476 39.8024 84.8706 39.0498L86.0007 36.2855C87.5873 32.3179 88.3812 29.7556 88.3812 28.599C88.3812 27.9804 88.1794 27.523 87.7759 27.2271L87.3723 26.9447C87.2381 26.8505 87.1706 26.6892 87.1706 26.4604C87.1706 26.2184 87.258 25.9897 87.433 25.7745C87.621 25.5593 87.8634 25.371 88.1588 25.2097C88.7641 24.9002 89.3694 24.7456 89.9747 24.7456C90.5937 24.7456 91.071 24.8129 91.407 24.9474C91.7438 25.0819 92.0261 25.2635 92.2548 25.4921C92.752 25.9628 93.0012 26.4538 93.0012 26.9649C93.0012 27.4759 92.9337 27.9938 92.7995 28.5183C92.6783 29.0294 92.5171 29.554 92.3153 30.0919C92.1267 30.6164 91.9249 31.1343 91.7101 31.6453C91.4945 32.1564 91.2996 32.6004 91.1248 32.9769L90.7212 33.8445C90.6138 34.0597 90.5868 34.1269 90.6406 34.0463C92.1336 31.9748 93.1155 30.6434 93.5859 30.0516L94.9983 28.3569C96.0339 27.1464 96.8479 26.3461 97.4394 25.9561C98.6363 25.1492 99.5783 24.7456 100.264 24.7456C100.95 24.7456 101.529 24.8331 101.999 25.0079C102.47 25.1828 102.88 25.4315 103.229 25.7543C103.969 26.4402 104.339 27.3146 104.339 28.3771C104.339 29.4397 104.097 30.5493 103.613 31.7059C103.129 32.8626 102.705 33.8041 102.342 34.5304C101.992 35.2432 101.656 35.9695 101.333 36.7093C100.325 38.9554 99.8201 40.5896 99.8201 41.6115C99.8201 42.0688 100.183 42.2974 100.909 42.2974C101.474 42.2974 101.986 42.1768 102.443 41.9344C102.913 41.6921 103.216 41.5716 103.351 41.5716C103.633 41.5716 103.774 41.7127 103.774 41.9951C103.774 43.1919 103.163 44.1938 101.938 45.0009C101.118 45.5525 100.365 45.828 99.6788 45.828C98.993 45.828 98.4215 45.7543 97.9642 45.6062C97.52 45.4582 97.1234 45.2227 96.7735 44.9004C95.9803 44.1877 95.5836 43.1919 95.5836 41.9145C95.5836 40.354 96.0745 38.4038 97.0559 36.0637C97.7693 34.4631 98.2734 33.3669 98.5695 32.7752L99.2553 31.3428C99.6719 30.482 99.8806 29.8028 99.8806 29.3052C99.8806 28.8075 99.5109 28.5587 98.7713 28.5587ZM119.167 40.341C119.558 40.341 119.752 40.6027 119.752 41.1274C119.752 41.5716 119.618 42.002 119.348 42.4186C118.986 43.1988 118.26 43.9384 117.17 44.638C115.933 45.4313 114.689 45.828 113.438 45.828C111.273 45.828 109.901 44.8597 109.322 42.9233C108.637 40.6233 109.665 35.7476 112.409 28.2965C110.862 28.1619 110.022 27.8929 109.887 27.4894C109.847 27.3684 109.827 27.2405 109.827 27.106C109.827 26.9581 109.887 26.7901 110.008 26.6017C110.143 26.4134 110.311 26.2318 110.512 26.057C110.983 25.6669 111.461 25.4719 111.945 25.4719H113.539C114.991 22.0692 116.027 20.1323 116.646 19.6616C116.941 19.4464 117.272 19.3388 117.634 19.3388C117.998 19.3388 118.3 19.3858 118.542 19.4801C118.785 19.5742 118.999 19.7087 119.188 19.8836C119.618 20.287 119.834 20.7376 119.834 21.2352C119.834 21.5043 119.752 21.8136 119.592 22.1633L118.098 25.4114H118.583C119.416 25.4114 120.089 25.4047 120.601 25.3912C120.601 25.3912 120.983 25.3844 121.75 25.371C122.005 25.3576 122.322 25.3508 122.698 25.3508C123.089 25.3508 123.283 25.4921 123.283 25.7745C123.283 27.55 121.185 28.4376 116.989 28.4376H116.827L115.456 31.9884C113.909 36.1847 113.135 39.1235 113.135 40.8044C113.135 41.2754 113.243 41.6453 113.458 41.9145C113.673 42.1699 114.077 42.2974 114.669 42.2974C115.26 42.2974 115.798 42.1969 116.282 41.9951C116.767 41.7933 117.191 41.5716 117.554 41.3292C117.916 41.0737 118.226 40.8451 118.483 40.6433C118.751 40.4415 118.979 40.341 119.167 40.341ZM137.849 40.2597C137.849 41.4972 138.287 42.1163 139.16 42.1163C139.766 42.1163 140.264 42.0219 140.654 41.8339C141.057 41.6453 141.327 41.5509 141.461 41.5509C141.743 41.5509 141.884 41.6989 141.884 41.9951C141.884 43.1519 141.279 44.1471 140.068 44.981C138.791 45.8548 137.486 46.0704 136.154 45.6262C135.281 45.317 134.635 44.6511 134.217 43.6292C134.017 43.1044 133.915 42.6273 133.915 42.1969C133.915 41.4972 133.983 40.7576 134.117 39.9774C132.866 42.5329 131.313 44.2951 129.456 45.2633C128.717 45.64 127.93 45.828 127.096 45.828C126.263 45.828 125.536 45.66 124.918 45.3239C124.312 44.9741 123.794 44.4969 123.365 43.8915C122.49 42.6273 122.093 41.0399 122.173 39.1304C122.254 36.7361 122.961 34.3892 124.292 32.0893C125.517 29.9372 127.063 28.182 128.931 26.8237C130.801 25.4383 132.549 24.7456 134.178 24.7456C135.805 24.7456 137.116 25.4921 138.112 26.9851C139.039 25.4921 139.861 24.7456 140.573 24.7456C141.34 24.7456 141.918 24.8868 142.308 25.1693C143.048 25.7073 143.31 26.178 143.095 26.5815C139.719 33.4948 137.983 37.7986 137.89 39.4932C137.862 39.7356 137.849 39.9912 137.849 40.2597ZM126.652 40.341C126.652 41.9545 127.17 42.7615 128.206 42.7615C128.999 42.7615 129.974 42.0895 131.132 40.7445C132.825 38.7668 134.325 36.104 135.63 32.7551C136.046 31.7059 136.396 30.6568 136.679 29.6077C136.626 28.6932 136.243 28.0207 135.529 27.5903C135.287 27.4423 134.924 27.3684 134.44 27.3684C133.97 27.3684 133.411 27.5432 132.766 27.8929C132.133 28.2426 131.514 28.7201 130.909 29.3254C130.318 29.9306 129.759 30.65 129.235 31.484C128.724 32.3045 128.273 33.1989 127.883 34.1672C127.063 36.2385 126.652 38.2964 126.652 40.341ZM145.657 44.8191C145.321 44.47 145.045 44.0259 144.83 43.4881C144.628 42.9365 144.527 42.3043 144.527 41.5915C144.527 40.865 144.688 39.8968 145.011 38.6862C145.347 37.4756 145.771 36.0973 146.283 34.5506L147.977 29.527C150.385 22.5332 151.777 17.1263 152.153 13.3065C152.274 12.1768 152.826 11.6119 153.808 11.6119C154.426 11.6119 154.937 11.7599 155.34 12.0558C156.121 12.6475 156.498 13.3065 156.47 14.0329C156.444 14.7592 156.315 15.6468 156.088 16.6959C155.858 17.7317 155.563 18.8681 155.2 20.1054C154.836 21.3294 154.42 22.6273 153.949 23.9992L151.165 32.19C149.564 36.8438 148.763 39.85 148.763 41.208C148.763 41.9344 149.06 42.2974 149.651 42.2974C150.217 42.2974 150.728 42.1768 151.185 41.9344C151.656 41.6921 151.958 41.5716 152.092 41.5716C152.375 41.5716 152.516 41.7127 152.516 41.9951C152.516 43.1919 151.905 44.1938 150.679 45.0009C149.861 45.5525 149.107 45.828 148.421 45.828C147.749 45.828 147.203 45.7474 146.787 45.5863C146.37 45.4245 145.993 45.1689 145.657 44.8191ZM183.484 28.5587C182.745 28.5587 181.42 29.6885 179.51 31.948L177.836 34.0059L174.608 38.2221C173.828 39.7019 173.215 40.9325 172.773 41.9145L171.683 44.2545C171.399 44.8329 171.15 45.2433 170.936 45.485C170.734 45.7137 170.451 45.828 170.088 45.828C169.739 45.828 169.395 45.7612 169.06 45.6262C168.737 45.5057 168.454 45.3439 168.212 45.1421C167.7 44.7117 167.445 44.2414 167.445 43.7297C167.445 43.5279 167.587 43.1314 167.87 42.5398L168.675 40.9057C171.192 35.7274 173.472 29.1639 175.516 21.215C176.269 18.283 176.814 15.6468 177.149 13.3065C177.298 12.1768 177.85 11.6119 178.804 11.6119C179.423 11.6119 179.934 11.7599 180.338 12.0558C181.118 12.6341 181.494 13.2528 181.468 13.9118C181.439 14.5708 181.347 15.3105 181.184 16.131C181.023 16.9514 180.814 17.846 180.559 18.8143C180.304 19.7692 180.015 20.7779 179.692 21.8405C178.804 24.5439 178.144 26.4941 177.714 27.6911C176.396 31.3092 175.583 33.4275 175.273 34.0463C175.475 33.8041 175.737 33.4746 176.06 33.0576C178.509 29.8431 180.021 27.9265 180.599 27.3078C181.178 26.6756 181.668 26.1915 182.072 25.8552C182.919 25.1154 183.995 24.7456 185.301 24.7456C186.363 24.7456 187.217 25.102 187.863 25.8148C188.468 26.5008 188.77 27.2541 188.77 28.0745C188.77 28.8815 188.676 29.6145 188.488 30.2735C188.313 30.9191 188.084 31.5781 187.802 32.2506C187.52 32.9231 187.21 33.6159 186.873 34.3286L185.866 36.4469C184.923 38.5857 184.453 40.1723 184.453 41.208C184.453 41.9344 184.749 42.2974 185.341 42.2974C185.906 42.2974 186.416 42.1768 186.873 41.9344C187.345 41.6921 187.647 41.5716 187.782 41.5716C188.064 41.5716 188.205 41.7127 188.205 41.9951C188.205 43.1919 187.6 44.1938 186.39 45.0009C185.556 45.5525 184.797 45.828 184.109 45.828C183.423 45.828 182.852 45.7612 182.395 45.6262C181.952 45.4788 181.554 45.2433 181.205 44.9204C180.411 44.1938 180.015 43.1251 180.015 41.7127C180.015 40.1929 180.512 38.2826 181.507 35.983L183.686 31.3428C184.103 30.482 184.311 29.8028 184.311 29.3052C184.311 28.8075 184.036 28.5587 183.484 28.5587ZM192.08 38.565C192.133 37.3951 192.328 36.2789 192.664 35.2163C193 34.1404 193.45 33.1047 194.015 32.1094C194.58 31.1006 195.241 30.1524 195.993 29.2648C196.76 28.3637 197.587 27.5768 198.474 26.9044C200.397 25.4651 202.341 24.7456 204.306 24.7456C206.605 24.7456 208.138 25.6939 208.904 27.5903C209.173 28.2359 209.301 29.0025 209.288 29.8902C209.275 30.7645 209.106 31.5781 208.784 32.3313C208.461 33.071 208.009 33.7503 207.433 34.369C206.866 34.9743 206.188 35.519 205.394 36.0031C204.614 36.4873 203.76 36.8975 202.832 37.2338C200.922 37.906 198.878 38.2558 196.699 38.2826C196.645 38.4714 196.611 38.7536 196.598 39.1304C196.585 39.507 196.624 39.9305 196.719 40.4009C196.813 40.8588 196.975 41.2686 197.204 41.6321C197.687 42.4385 198.387 42.8421 199.301 42.8421C200.862 42.8421 202.381 42.3849 203.86 41.4703C204.386 41.1611 204.809 40.8451 205.132 40.5221C205.468 40.1861 205.757 40.018 205.999 40.018C206.241 40.018 206.45 40.166 206.626 40.4614C206.813 40.7445 206.908 41.0668 206.908 41.4304C206.908 42.1431 206.706 42.7615 206.303 43.2863C204.608 44.9809 202.086 45.828 198.737 45.828C196.76 45.828 195.173 45.2365 193.975 44.0527C192.63 42.7079 191.997 40.8788 192.08 38.565ZM203.86 27.4289C202.449 27.4289 201.091 28.3972 199.785 30.3341C198.683 32.0018 197.795 33.979 197.123 36.2653C199.369 36.0367 201.319 35.1491 202.974 33.6023C204.493 32.1498 205.253 30.7577 205.253 29.4261C205.253 28.0947 204.789 27.4289 203.86 27.4289ZM226.941 40.2597C226.941 41.4972 227.378 42.1163 228.252 42.1163C228.858 42.1163 229.355 42.0219 229.746 41.8339C230.148 41.6453 230.418 41.5509 230.552 41.5509C230.834 41.5509 230.976 41.6989 230.976 41.9951C230.976 43.1519 230.371 44.1471 229.16 44.981C227.883 45.8548 226.577 46.0704 225.246 45.6262C224.372 45.317 223.727 44.6511 223.309 43.6292C223.107 43.1044 223.007 42.6273 223.007 42.1969C223.007 41.4972 223.074 40.7576 223.209 39.9774C221.958 42.5329 220.403 44.2951 218.548 45.2633C217.809 45.64 217.021 45.828 216.188 45.828C215.355 45.828 214.628 45.66 214.009 45.3239C213.403 44.9741 212.886 44.4969 212.455 43.8915C211.58 42.6273 211.185 41.0399 211.265 39.1304C211.346 36.7361 212.052 34.3892 213.384 32.0893C214.607 29.9372 216.154 28.182 218.024 26.8237C219.893 25.4383 221.641 24.7456 223.269 24.7456C224.896 24.7456 226.207 25.4921 227.203 26.9851C228.131 25.4921 228.952 24.7456 229.665 24.7456C230.431 24.7456 231.01 24.8868 231.399 25.1693C232.14 25.7073 232.402 26.178 232.187 26.5815C228.811 33.4948 227.076 37.7986 226.981 39.4932C226.954 39.7356 226.941 39.9912 226.941 40.2597ZM215.744 40.341C215.744 41.9545 216.262 42.7615 217.297 42.7615C218.091 42.7615 219.066 42.0895 220.222 40.7445C221.917 38.7668 223.417 36.104 224.722 32.7551C225.138 31.7059 225.489 30.6568 225.77 29.6077C225.716 28.6932 225.334 28.0207 224.622 27.5903C224.378 27.4423 224.016 27.3684 223.532 27.3684C223.061 27.3684 222.502 27.5432 221.856 27.8929C221.225 28.2426 220.605 28.7201 220.001 29.3254C219.409 29.9306 218.852 30.65 218.327 31.484C217.815 32.3045 217.365 33.1989 216.974 34.1672C216.154 36.2385 215.744 38.2964 215.744 40.341ZM234.749 44.8191C234.412 44.47 234.137 44.0259 233.921 43.4881C233.719 42.9365 233.619 42.3043 233.619 41.5915C233.619 40.865 233.78 39.8968 234.103 38.6862C234.439 37.4756 234.863 36.0973 235.374 34.5506L237.069 29.527C239.476 22.5332 240.868 17.1263 241.244 13.3065C241.366 12.1768 241.917 11.6119 242.899 11.6119C243.517 11.6119 244.029 11.7599 244.432 12.0558C245.212 12.6475 245.59 13.3065 245.562 14.0329C245.535 14.7592 245.407 15.6468 245.178 16.6959C244.95 17.7317 244.654 18.8681 244.29 20.1054C243.929 21.3294 243.511 22.6273 243.041 23.9992L240.256 32.19C238.656 36.8438 237.855 39.85 237.855 41.208C237.855 41.9344 238.151 42.2974 238.743 42.2974C239.308 42.2974 239.818 42.1768 240.277 41.9344C240.748 41.6921 241.05 41.5716 241.184 41.5716C241.467 41.5716 241.609 41.7127 241.609 41.9951C241.609 43.1919 240.995 44.1938 239.773 45.0009C238.951 45.5525 238.198 45.828 237.513 45.828C236.84 45.828 236.296 45.7474 235.878 45.5863C235.461 45.4245 235.085 45.1689 234.749 44.8191ZM257.041 40.341C257.432 40.341 257.627 40.6027 257.627 41.1274C257.627 41.5716 257.492 42.002 257.223 42.4186C256.86 43.1988 256.134 43.9384 255.044 44.638C253.806 45.4313 252.563 45.828 251.312 45.828C249.146 45.828 247.774 44.8597 247.196 42.9233C246.51 40.6233 247.54 35.7476 250.283 28.2965C248.736 28.1619 247.895 27.8929 247.761 27.4894C247.721 27.3684 247.7 27.2405 247.7 27.106C247.7 26.9581 247.761 26.7901 247.882 26.6017C248.016 26.4134 248.184 26.2318 248.386 26.057C248.857 25.6669 249.334 25.4719 249.818 25.4719H251.413C252.865 22.0692 253.901 20.1323 254.519 19.6616C254.815 19.4464 255.146 19.3388 255.507 19.3388C255.871 19.3388 256.174 19.3858 256.416 19.4801C256.658 19.5742 256.873 19.7087 257.062 19.8836C257.492 20.287 257.706 20.7376 257.706 21.2352C257.706 21.5043 257.627 21.8136 257.466 22.1633L255.972 25.4114H256.457C257.29 25.4114 257.963 25.4047 258.474 25.3912C258.474 25.3912 258.857 25.3844 259.624 25.371C259.879 25.3576 260.196 25.3508 260.572 25.3508C260.962 25.3508 261.156 25.4921 261.156 25.7745C261.156 27.55 259.059 28.4376 254.863 28.4376H254.702L253.329 31.9884C251.783 36.1847 251.009 39.1235 251.009 40.8044C251.009 41.2754 251.116 41.6453 251.332 41.9145C251.547 42.1699 251.951 42.2974 252.542 42.2974C253.134 42.2974 253.672 42.1969 254.156 41.9951C254.64 41.7933 255.065 41.5716 255.428 41.3292C255.79 41.0737 256.1 40.8451 256.356 40.6433C256.625 40.4415 256.854 40.341 257.041 40.341ZM274.714 28.5587C273.975 28.5587 272.651 29.6885 270.74 31.948L269.065 34.0059L265.838 38.2221C265.057 39.7019 264.446 40.9325 264.002 41.9145L262.913 44.2545C262.63 44.8329 262.381 45.2433 262.165 45.485C261.964 45.7137 261.681 45.828 261.319 45.828C260.969 45.828 260.627 45.7612 260.289 45.6262C259.966 45.5057 259.685 45.3439 259.442 45.1421C258.931 44.7117 258.676 44.2414 258.676 43.7297C258.676 43.5279 258.817 43.1314 259.099 42.5398L259.907 40.9057C262.422 35.7274 264.701 29.1639 266.745 21.215C267.499 18.283 268.043 15.6468 268.379 13.3065C268.528 12.1768 269.078 11.6119 270.034 11.6119C270.652 11.6119 271.164 11.7599 271.568 12.0558C272.347 12.6341 272.724 13.2528 272.698 13.9118C272.67 14.5708 272.575 15.3105 272.415 16.131C272.252 16.9514 272.045 17.846 271.789 18.8143C271.534 19.7692 271.245 20.7779 270.922 21.8405C270.034 24.5439 269.375 26.4941 268.944 27.6911C267.627 31.3092 266.813 33.4275 266.503 34.0463C266.705 33.8041 266.968 33.4746 267.29 33.0576C269.738 29.8431 271.251 27.9265 271.829 27.3078C272.407 26.6756 272.899 26.1915 273.302 25.8552C274.149 25.1154 275.226 24.7456 276.53 24.7456C277.593 24.7456 278.447 25.102 279.092 25.8148C279.698 26.5008 280 27.2541 280 28.0745C280 28.8815 279.906 29.6145 279.717 30.2735C279.543 30.9191 279.314 31.5781 279.031 32.2506C278.749 32.9231 278.44 33.6159 278.104 34.3286L277.095 36.4469C276.154 38.5857 275.683 40.1723 275.683 41.208C275.683 41.9344 275.978 42.2974 276.571 42.2974C277.136 42.2974 277.647 42.1768 278.104 41.9344C278.574 41.6921 278.878 41.5716 279.012 41.5716C279.294 41.5716 279.435 41.7127 279.435 41.9951C279.435 43.1919 278.83 44.1938 277.619 45.0009C276.786 45.5525 276.025 45.828 275.34 45.828C274.654 45.828 274.083 45.7612 273.626 45.6262C273.181 45.4788 272.785 45.2433 272.435 44.9204C271.642 44.1938 271.245 43.1251 271.245 41.7127C271.245 40.1929 271.742 38.2826 272.738 35.983L274.916 31.3428C275.333 30.482 275.542 29.8028 275.542 29.3052C275.542 28.8075 275.265 28.5587 274.714 28.5587Z" fill="black"/>
</svg>