<svg width="425" height="330" viewBox="0 0 425 330" fill="none" xmlns="http://www.w3.org/2000/svg">
    <path d="M261.151 258.322C239.603 245.022 221.333 255.551 214.892 262.478C233.162 233.029 256.662 240.906 266.421 248.228C276.181 255.551 295.114 262.28 306.24 262.478C300.189 266.634 282.7 271.621 261.151 258.322Z" fill="#59A9F3"/>
    <path d="M168.087 265.232C124.259 239.385 87.1007 259.847 74 273.31C111.158 216.076 158.956 231.384 178.805 245.616C198.655 259.847 237.163 272.925 259.792 273.31C247.485 281.387 211.915 291.08 168.087 265.232Z" fill="#59A9F3"/>
    <path d="M323.614 194.528C324.973 194.528 325.653 195.507 325.653 197.464C325.653 199.367 325.299 200.943 324.593 202.193C323.886 203.444 323.071 204.585 322.146 205.618C321.222 206.651 320.054 207.63 318.64 208.554C315.324 210.728 311.818 211.815 308.121 211.815C304.479 211.815 301.57 211.381 299.396 210.511C297.276 209.587 295.428 208.228 293.851 206.434C290.481 202.683 288.795 197.491 288.795 190.859C288.795 183.792 290.154 175.175 292.873 165.01C295.591 154.79 298.2 146.065 300.701 138.834C303.256 131.55 305.865 124.619 308.529 118.041L315.868 99.3677C307.822 106.598 297.629 121.792 285.289 144.95L265.556 182.297C255.009 201.976 247.48 211.815 242.968 211.815C238.565 211.815 235.548 209.913 233.917 206.107C232.449 202.465 231.715 196.295 231.715 187.597C231.715 178.845 232.395 170.473 233.754 162.482C235.167 154.436 236.934 146.581 239.054 138.916C242.751 125.38 247.535 111.952 253.406 98.6338C247.698 101.841 241.365 108.99 234.406 120.08C229.079 128.941 225.328 135.41 223.153 139.487L202.115 178.22C193.363 194.148 186.323 203.987 180.996 207.738C177.136 210.456 172.977 211.815 168.52 211.815C164.714 211.815 161.969 210.619 160.284 208.228C159.631 207.249 159.305 206.352 159.305 205.537C159.305 204.721 159.55 204.232 160.039 204.069C163.41 203.145 165.801 202.193 167.215 201.215C168.574 200.182 169.933 199.149 171.292 198.116C172.651 197.029 174.635 194.773 177.245 191.348C179.854 187.869 182.681 183.71 185.725 178.872C188.769 173.979 191.95 168.516 195.266 162.482L205.622 143.401C215.189 124.918 225.192 110.104 235.629 98.96C239.326 94.9915 242.968 91.9201 246.556 89.7456C250.144 87.1906 254.303 85.4782 259.032 84.6084C260.337 84.3366 261.533 84.2007 262.62 84.2007C263.762 84.2007 265.012 84.3638 266.371 84.6899C267.785 85.0161 269.008 85.5326 270.041 86.2393C272.432 87.8701 273.139 90.0446 272.161 92.7627C271.726 94.3936 270.883 96.8398 269.633 100.102L265.229 111.762C254.955 140.139 249.329 165.961 248.35 189.228C251.231 184.281 254.14 178.872 257.075 173.001L266.29 154.817L275.993 136.307C290.943 108.582 304.832 92.7083 317.662 88.6855C320.325 87.8158 322.554 87.3809 324.348 87.3809C326.142 87.3809 327.556 87.6255 328.588 88.1147C329.621 88.5496 330.545 89.1204 331.361 89.8271C333.264 91.5667 333.916 93.3607 333.318 95.209C332.72 97.0029 331.932 99.3133 330.953 102.14L319.129 136.633L314.889 150.169C310.214 165.825 307.442 177.839 306.572 186.211C306.246 189.744 306.626 192.517 307.713 194.528C308.855 196.485 310.404 197.464 312.361 197.464C314.318 197.464 315.84 197.328 316.928 197.056C318.069 196.73 319.048 196.377 319.863 195.996L321.983 195.018C322.581 194.691 323.125 194.528 323.614 194.528Z" fill="black"/>
    <path d="M338.555 76.8267C344.894 76.8267 350.033 71.6875 350.033 65.3481C350.033 59.0086 344.894 53.8695 338.555 53.8695C332.215 53.8695 327.076 59.0086 327.076 65.3481C327.076 71.6875 332.215 76.8267 338.555 76.8267Z" fill="black"/>
    <path d="M274.875 78.2616C281.215 78.2616 286.354 73.1225 286.354 66.783C286.354 60.4436 281.215 55.3044 274.875 55.3044C268.536 55.3044 263.396 60.4436 263.396 66.783C263.396 73.1225 268.536 78.2616 274.875 78.2616Z" fill="black"/>
</svg>
