<svg width="93" height="138" viewBox="0 0 93 138" fill="none" xmlns="http://www.w3.org/2000/svg">
<path d="M33.8644 72.8721C28.9486 75.239 26.9458 81.7478 30.5416 86.1629C31.4975 87.2553 29.9044 88.8939 28.9486 87.756C24.5335 82.4306 26.2631 74.3286 32.3623 71.0969C36.3223 68.9577 40.8284 69.3218 44.4242 71.4156V64.315V39.7815C40.6008 38.234 36.1857 38.5526 32.4078 40.8284C34.5016 45.9718 31.0423 51.2972 26.0355 52.9813C24.6245 53.4365 24.0328 51.2517 25.3983 50.751C29.2672 49.4766 32.0892 45.2435 30.1775 41.2836C27.9927 36.7774 22.1211 37.3691 18.3432 38.9622C17.0232 39.5539 15.8398 37.5967 17.2053 37.005C21.7569 35.0933 28.1293 34.6381 31.3154 38.8257C35.3664 36.3678 40.1457 35.9126 44.4242 37.3691V32.772V27.5831C41.1925 27.8106 37.8698 26.7638 35.5485 24.4424C32.4533 21.4383 31.452 16.7501 32.772 12.6991C33.2271 11.3336 35.4574 11.9254 34.9568 13.2909C33.8644 16.6136 34.5926 20.3914 37.1416 22.8493C39.0988 24.761 41.7843 25.5348 44.4242 25.2617V19.7542V0.227583C43.5139 0.075861 42.5732 0 41.6022 0C32.863 0 25.6714 6.82749 25.1252 15.4756C27.2189 15.7943 29.1762 16.6591 30.9058 17.9791C32.0892 18.8894 30.4961 20.528 29.3582 19.6177C28.0838 18.6618 26.6272 17.9791 25.0797 17.706C24.5335 17.6149 23.9721 17.5694 23.3955 17.5694C17.1142 17.5694 12.0164 22.6673 12.0164 28.9941C12.0164 30.4051 12.2895 31.7706 12.7447 32.9995C5.37096 35.2754 0 42.1939 0 50.2959C0 56.4406 3.04961 61.8571 7.69231 65.1343C9.05781 62.2667 11.5157 60.1274 14.5653 59.1261C14.0646 55.9399 16.6136 53.5275 19.6177 53.2544C21.0742 53.1179 21.0742 55.3937 19.6177 55.5303C17.9335 55.6668 16.477 57.0778 16.7956 58.853C17.1598 61.0833 19.5721 61.2654 21.3473 60.7647C22.7583 60.355 23.35 62.5398 21.939 62.9495C19.5266 63.6322 16.7501 63.1315 15.3846 61.2198C12.7447 61.9936 10.7419 63.9053 9.64952 66.3177C9.19436 67.4101 8.96677 68.5935 8.96677 69.868C8.96677 72.9631 10.5143 75.6941 12.8812 77.3327C12.2895 78.7437 12.0164 80.2913 12.0164 81.8844C12.0164 87.756 16.0674 92.6718 21.5294 93.9918C21.9845 96.2676 23.9873 97.9518 26.3996 97.9518C27.6741 97.9518 28.812 97.4966 29.6768 96.7228C32.6354 98.771 36.1857 100 40.0546 100C41.5567 100 43.0132 99.8179 44.4242 99.4538V76.1038V74.1011C41.4656 71.8707 37.5057 71.097 33.8644 72.8721Z" fill="white"/>
<path fill-rule="evenodd" clip-rule="evenodd" d="M48.4297 99.8635C48.4297 99.8635 48.4145 99.8635 48.3842 99.8635C47.3828 99.8635 46.5635 98.9986 46.609 97.9973C46.609 97.4511 46.9732 84.9795 52.5262 70.5508C55.8034 62.0847 60.173 54.711 65.5894 48.6573C72.3714 41.056 80.7465 35.594 90.487 32.3623C91.0332 32.1803 91.6705 32.2713 92.1256 32.5899C92.6263 32.9085 92.8994 33.4547 92.8994 34.0464C92.9449 34.3651 93.036 42.0118 88.5753 50.0683C84.5699 57.3509 75.9672 66.2267 57.6696 67.8198C57.093 69.0942 56.5316 70.4142 55.9854 71.7797C50.66 85.6168 50.2959 97.9518 50.2959 98.0883C50.2503 99.0897 49.431 99.8635 48.4297 99.8635ZM89.0305 36.7774C76.2403 41.7387 66.3632 50.8421 59.5357 63.9053C71.7342 62.4033 80.3823 57.2144 85.2981 48.4297C87.8016 43.9235 88.7119 39.5084 89.0305 36.7774Z" fill="#EBEDFA"/>
<path fill-rule="evenodd" clip-rule="evenodd" d="M61.1744 48.4297C60.7647 48.4297 60.3551 48.2931 60.0364 48.0655C55.3482 44.3332 51.7069 37.5512 50.2504 29.8589C48.6118 21.3928 49.8862 13.3819 53.8007 7.23714C54.0738 6.82749 54.5289 6.55439 55.0296 6.46336C55.5303 6.32681 56.031 6.46336 56.4406 6.73646C68.6846 15.3846 69.0032 38.0064 62.7219 47.6104C62.4488 48.0655 61.9937 48.3386 61.493 48.4297C61.3716 48.4297 61.2654 48.4297 61.1744 48.4297ZM55.8944 11.0605C50.66 21.4383 53.8917 36.5498 60.6737 43.6504C62.6309 39.5084 63.4957 33.4092 62.904 27.401C62.2212 20.437 59.7178 14.6108 55.8944 11.0605Z" fill="#EBEDFA"/>
<path d="M4.36463 131V120.92C4.36463 116.475 7.54963 113.465 12.2046 113.465C16.8946 113.465 20.1146 116.475 20.1146 120.92V131H16.5096V120.92C16.5096 118.225 14.8296 116.44 12.2396 116.44C9.64963 116.44 7.96963 118.225 7.96963 120.92V131H4.36463ZM39.5287 113.78V123.895C39.5287 128.305 36.3437 131.315 31.6887 131.315C26.9987 131.315 23.8137 128.305 23.8137 123.895V113.78H27.3837V123.895C27.3837 126.59 29.0637 128.34 31.6537 128.34C34.2437 128.34 35.9587 126.59 35.9587 123.895V113.78H39.5287ZM61.536 113.465C65.561 113.465 68.186 116.16 68.186 120.255V131H64.581V120.15C64.581 117.875 63.181 116.335 61.011 116.335C58.841 116.335 57.406 117.875 57.406 120.15V131H53.836V120.15C53.836 117.875 52.401 116.335 50.231 116.335C48.061 116.335 46.661 117.875 46.661 120.15V131H43.056V120.255C43.056 116.16 45.681 113.465 49.706 113.465C52.436 113.465 54.571 114.69 55.621 116.72C56.671 114.69 58.806 113.465 61.536 113.465ZM87.5853 113.78V123.895C87.5853 128.305 84.4003 131.315 79.7453 131.315C75.0553 131.315 71.8703 128.305 71.8703 123.895V113.78H75.4403V123.895C75.4403 126.59 77.1203 128.34 79.7103 128.34C82.3003 128.34 84.0153 126.59 84.0153 123.895V113.78H87.5853Z" fill="white"/>
</svg>
